A mining ship, investigating a suspected SOS, lands on a distant planet. The crew discovers some strange creatures and investigates.

Director:
Ridley Scott
Writers:
Dan O'Bannon (story), Ronald Shusett (story), and 1 more credit »
Stars:
Sigourney Weaver, Tom Skerritt and John Hurt 

Media info:

General
Unique ID                        : 204766220697591714519420313032893040458 (0x9A0C8A237DB25E46BD4C2CF6990A874A)
Complete name                    : E:\torrent2\Alien 1.1979.BluRayrip.mkv.1080p.AVC.DTS-5.1.ACB-Team\Alien 1.1979.BluRayrip.mkv.1080p.AVC.DTS-5.1.ACB-Team.mkv
Format                           : Matroska
Format version                   : Version 2
File size                        : 12.3 GiB
Duration                         : 1h 55mn
Overall bit rate                 : 15.2 Mbps
Movie name                       : movie
Encoded date                     : UTC 2011-09-04 08:48:35
Writing application              : mkvmerge v3.2.0 ('Beginnings') built on Feb 12 2010 16:46:17
Writing library                  : libebml v0.7.9 + libmatroska v0.8.1

Video
ID                               : 1
Format                           : AVC
Format/Info                      : Advanced Video Codec
Format profile                   : High@L4.1
Format settings, CABAC           : Yes
Format settings, ReFrames        : 2 frames
Muxing mode                      : Container profile=Unknown@0.0
Codec ID                         : V_MPEG4/ISO/AVC
Duration                         : 1h 55mn
Bit rate mode                    : Variable
Bit rate                         : 13.4 Mbps
Nominal bit rate                 : 14.7 Mbps
Maximum bit rate                 : 35.0 Mbps
Width                            : 1 920 pixels
Height                           : 1 080 pixels
Display aspect ratio             : 16:9
Frame rate                       : 23.976 fps
Color space                      : YUV
Chroma subsampling               : 4:2:0
Bit depth                        : 8 bits
Scan type                        : Progressive
Bits/(Pixel*Frame)               : 0.270
Stream size                      : 10.9 GiB (88%)
Writing library                  : x264 core 116 r2057 0ba8a9c
Encoding settings                : cabac=1 / ref=1 / deblock=1:0:0 / analyse=0x3:0x3 / me=dia / subme=1 / psy=1 / psy_rd=1.00:0.00 / mixed_ref=0 / me_range=16 / chroma_me=1 / trellis=0 / 8x8dct=1 / cqm=0 / deadzone=21,11 / fast_pskip=1 / chroma_qp_offset=0 / threads=3 / sliced_threads=0 / slices=4 / nr=0 / decimate=1 / interlaced=0 / bluray_compat=1 / constrained_intra=0 / bframes=3 / b_pyramid=0 / b_adapt=1 / b_bias=0 / direct=1 / weightb=1 / open_gop=0 / weightp=1 / keyint=24 / keyint_min=1 / scenecut=40 / intra_refresh=0 / rc_lookahead=0 / rc=abr / mbtree=0 / bitrate=14710 / ratetol=1.0 / qcomp=0.60 / qpmin=0 / qpmax=69 / qpstep=4 / vbv_maxrate=35000 / vbv_bufsize=30000 / nal_hrd=vbr / ip_ratio=1.10 / pb_ratio=1.10 / aq=1:1.00

Audio
ID                               : 2
Format                           : DTS
Format/Info                      : Digital Theater Systems
Codec ID                         : A_DTS
Duration                         : 1h 55mn
Bit rate mode                    : Constant
Bit rate                         : 1 510 Kbps
Channel(s)                       : 6 channels
Channel positions                : Front: L C R, Side: L R, LFE
Sampling rate                    : 48.0 KHz
Bit depth                        : 24 bits
Compression mode                 : Lossy
Stream size                      : 1.22 GiB (10%)
Language                         : English

Text #1
ID                               : 3
Format                           : VobSub
Muxing mode                      : zlib
Codec ID                         : S_VOBSUB
Codec ID/Info                    : The same subtitle format used on DVDs
Language                         : English

Text #2
ID                               : 4
Format                           : VobSub
Muxing mode                      : zlib
Codec ID                         : S_VOBSUB
Codec ID/Info                    : The same subtitle format used on DVDs
Language                         : Portuguese

Text #3
ID                               : 5
Format                           : VobSub
Muxing mode                      : zlib
Codec ID                         : S_VOBSUB
Codec ID/Info                    : The same subtitle format used on DVDs
Language                         : Danish

Text #4
ID                               : 6
Format                           : VobSub
Muxing mode                      : zlib
Codec ID                         : S_VOBSUB
Codec ID/Info                    : The same subtitle format used on DVDs
Language                         : Finnish

Text #5
ID                               : 7
Format                           : VobSub
Muxing mode                      : zlib
Codec ID                         : S_VOBSUB
Codec ID/Info                    : The same subtitle format used on DVDs
Language                         : French

Text #6
ID                               : 8
Format                           : VobSub
Muxing mode                      : zlib
Codec ID                         : S_VOBSUB
Codec ID/Info                    : The same subtitle format used on DVDs
Language                         : German

Text #7
ID                               : 9
Format                           : VobSub
Muxing mode                      : zlib
Codec ID                         : S_VOBSUB
Codec ID/Info                    : The same subtitle format used on DVDs
Language                         : Spanish

Text #8
ID                               : 10
Format                           : VobSub
Muxing mode                      : zlib
Codec ID                         : S_VOBSUB
Codec ID/Info                    : The same subtitle format used on DVDs
Language                         : Dutch

Text #9
ID                               : 11
Format                           : VobSub
Muxing mode                      : zlib
Codec ID                         : S_VOBSUB
Codec ID/Info                    : The same subtitle format used on DVDs
Language                         : Norwegian

Text #10
ID                               : 12
Format                           : VobSub
Muxing mode                      : zlib
Codec ID                         : S_VOBSUB
Codec ID/Info                    : The same subtitle format used on DVDs
Language                         : Swedish

Menu
00:00:00.000                     : en:00:00:00.000
00:02:01.120                     : en:00:02:01.120
00:04:40.154                     : en:00:04:40.154
00:07:55.850                     : en:00:07:55.850
00:09:10.508                     : en:00:09:10.508
00:12:40.426                     : en:00:12:40.426
00:14:16.105                     : en:00:14:16.105
00:20:05.912                     : en:00:20:05.912
00:23:22.651                     : en:00:23:22.651
00:25:05.253                     : en:00:25:05.253
00:27:50.877                     : en:00:27:50.877
00:31:51.826                     : en:00:31:51.826
00:35:32.922                     : en:00:35:32.922
00:37:04.347                     : en:00:37:04.347
00:40:33.889                     : en:00:40:33.889
00:43:26.520                     : en:00:43:26.520
00:47:28.303                     : en:00:47:28.303
00:50:06.128                     : en:00:50:06.128
00:51:44.309                     : en:00:51:44.309
00:54:24.677                     : en:00:54:24.677
00:59:01.746                     : en:00:59:01.746
01:00:26.873                     : en:01:00:26.873
01:03:36.312                     : en:01:03:36.312
01:08:18.719                     : en:01:08:18.719
01:10:04.950                     : en:01:10:04.950
01:12:52.409                     : en:01:12:52.409
01:14:33.927                     : en:01:14:33.927
01:17:14.713                     : en:01:17:14.713
01:19:02.904                     : en:01:19:02.904
01:22:34.282                     : en:01:22:34.282
01:26:39.235                     : en:01:26:39.235
01:28:49.573                     : en:01:28:49.573
01:30:48.734                     : en:01:30:48.734
01:32:39.762                     : en:01:32:39.762
01:34:23.782                     : en:01:34:23.782
01:37:45.150                     : en:01:37:45.150
01:39:14.448                     : en:01:39:14.448
01:43:28.243                     : en:01:43:28.243
01:46:17.954                     : en:01:46:17.954
01:53:05.611                     : en:01:53:05.611



